<svg width="45" height="45" viewBox="0 0 45 45" fill="none" xmlns="http://www.w3.org/2000/svg">
<path d="M8.1001 3.6001C5.62553 3.6001 3.6001 5.62553 3.6001 8.1001V36.9001C3.6001 39.3747 5.62553 41.4001 8.1001 41.4001H23.2489C23.3461 41.4162 23.4453 41.4162 23.5425 41.4001H28.6489C28.7461 41.4162 28.8453 41.4162 28.9425 41.4001H36.9001C39.3747 41.4001 41.4001 39.3747 41.4001 36.9001V8.1001C41.4001 5.62553 39.3747 3.6001 36.9001 3.6001H8.1001ZM8.1001 5.4001H36.9001C38.4017 5.4001 39.6001 6.59846 39.6001 8.1001V36.9001C39.6001 38.4017 38.4017 39.6001 36.9001 39.6001H29.7001V27.0001H33.1384L34.3987 20.7001H29.7001V18.9001C29.7001 18.3984 29.7478 18.3591 29.9163 18.2497C30.0848 18.1403 30.6053 18.0001 31.5001 18.0001H34.2001V12.9323L33.6868 12.688C33.6868 12.688 31.6195 11.7001 28.8001 11.7001C26.7751 11.7001 25.1115 12.5069 24.047 13.8376C22.9824 15.1683 22.5001 16.9501 22.5001 18.9001V20.7001H19.8001V27.0001H22.5001V39.6001H8.1001C6.59846 39.6001 5.4001 38.4017 5.4001 36.9001V8.1001C5.4001 6.59846 6.59846 5.4001 8.1001 5.4001ZM28.8001 13.5001C30.6713 13.5001 31.8487 13.9127 32.4001 14.1312V16.2001H31.5001C30.4644 16.2001 29.6344 16.2858 28.9354 16.7397C28.2365 17.1937 27.9001 18.0554 27.9001 18.9001V22.5001H32.2015L31.6618 25.2001H27.9001V39.6001H24.3001V25.2001H21.6001V22.5001H24.3001V18.9001C24.3001 17.2501 24.7178 15.8819 25.4532 14.9626C26.1887 14.0433 27.2251 13.5001 28.8001 13.5001Z" fill="#FFFEFE"/>
</svg>
