<svg width="41" height="41" viewBox="0 0 41 41" fill="none" xmlns="http://www.w3.org/2000/svg">
<path d="M12.4002 0.699951C5.94943 0.699951 0.700195 5.94919 0.700195 12.4V28.6C0.700195 35.0507 5.94943 40.3 12.4002 40.3H28.6002C35.051 40.3 40.3002 35.0507 40.3002 28.6V12.4C40.3002 5.94919 35.051 0.699951 28.6002 0.699951H12.4002ZM12.4002 2.49995H28.6002C34.078 2.49995 38.5002 6.92212 38.5002 12.4V28.6C38.5002 34.0778 34.078 38.5 28.6002 38.5H12.4002C6.92236 38.5 2.50019 34.0778 2.50019 28.6V12.4C2.50019 6.92212 6.92236 2.49995 12.4002 2.49995ZM31.3002 7.89995C30.8228 7.89995 30.365 8.0896 30.0274 8.42716C29.6898 8.76473 29.5002 9.22256 29.5002 9.69995C29.5002 10.1773 29.6898 10.6352 30.0274 10.9727C30.365 11.3103 30.8228 11.5 31.3002 11.5C31.7776 11.5 32.2354 11.3103 32.573 10.9727C32.9105 10.6352 33.1002 10.1773 33.1002 9.69995C33.1002 9.22256 32.9105 8.76473 32.573 8.42716C32.2354 8.0896 31.7776 7.89995 31.3002 7.89995ZM20.5002 10.6C15.0432 10.6 10.6002 15.043 10.6002 20.5C10.6002 25.9569 15.0432 30.4 20.5002 30.4C25.9571 30.4 30.4002 25.9569 30.4002 20.5C30.4002 15.043 25.9571 10.6 20.5002 10.6ZM20.5002 12.4C24.9844 12.4 28.6002 16.0158 28.6002 20.5C28.6002 24.9841 24.9844 28.6 20.5002 28.6C16.016 28.6 12.4002 24.9841 12.4002 20.5C12.4002 16.0158 16.016 12.4 20.5002 12.4Z" fill="#FFFEFE"/>
</svg>
