<svg width="45" height="45" viewBox="0 0 45 45" fill="none" xmlns="http://www.w3.org/2000/svg">
<path d="M21.9623 8.1001C16.0209 8.1001 10.4416 8.5501 7.4709 9.17939C5.4916 9.62939 3.77949 10.9794 3.4209 13.0501C3.0623 15.2087 2.7002 18.4501 2.7002 22.5001C2.7002 26.5501 3.05879 29.7001 3.50879 31.9501C3.8709 33.9294 5.57949 35.3708 7.55879 35.8208C10.7123 36.4501 16.1088 36.9001 22.0502 36.9001C27.9916 36.9001 33.3881 36.4501 36.5381 35.8208C38.5209 35.3708 40.2295 34.0208 40.5881 31.9501C40.9502 29.7001 41.4002 26.4622 41.4881 22.4122C41.4881 18.3622 41.0381 15.1208 40.5881 12.8708C40.2295 10.8915 38.5209 9.4501 36.5381 9.0001C33.3881 8.5501 27.9002 8.1001 21.9623 8.1001ZM21.9623 9.9001C28.4416 9.9001 33.6588 10.438 36.1795 10.888C37.5295 11.2501 38.6088 12.1501 38.7881 13.3208C39.3295 16.2001 39.6881 19.2622 39.6881 22.4122C39.6002 26.2794 39.1502 29.4294 38.7881 31.6794C38.5209 33.388 36.7209 33.9294 36.1795 34.1122C32.9381 34.7415 27.5381 35.188 22.1381 35.188C16.7381 35.188 11.2502 34.8294 8.1002 34.1122C6.7502 33.7501 5.6709 32.8501 5.4916 31.6794C4.7709 29.1587 4.5002 25.8294 4.5002 22.5001C4.5002 18.3587 4.8623 15.3001 5.2209 13.4122C5.4916 11.7001 7.37949 11.1587 7.82949 10.9794C10.8002 10.3501 16.2916 9.9001 21.9623 9.9001ZM17.1002 15.3001V29.7001L29.7002 22.5001L17.1002 15.3001ZM18.9002 18.3622L26.1002 22.5001L18.9002 26.638V18.3622Z" fill="#FFFEFE"/>
</svg>
